<svg width="147" height="147" viewBox="0 0 147 147" fill="none" xmlns="http://www.w3.org/2000/svg">
<path d="M107.333 45.3058C115.039 43.5946 125.076 35.946 126.604 32.1791C127.499 29.9741 123.032 26.5288 121.838 25.1392C119.104 21.9695 120.207 20.4076 121.263 16.6293C122.469 12.3341 119.61 7.59107 115.556 5.73061C111.502 3.87014 106.655 4.45584 102.578 6.27037C98.5014 8.0849 95.0216 11.0019 91.6108 13.873C89.1187 12.2997 85.1451 5.35162 78.7138 9.86498C74.2694 12.9772 73.8674 19.753 74.4416 25.1622C75.7853 37.6457 78.8631 44.1229 84.6627 45.8685C91.9898 48.0735 100.098 46.9136 107.333 45.3058Z" fill="url(#paint0_linear_128_78)"/>
<path d="M119.851 9.39429C118.875 26.2189 102.464 37.3817 94.6771 42.297L99.7302 46.6381C99.7302 46.6381 102.934 46.707 107.321 45.3059C114.844 42.9172 125.834 36.1644 126.592 32.1793C127.706 26.3797 121.757 27.643 120.414 23.0607C119.713 20.6375 123.824 16.0552 119.851 9.39429ZM91.6223 13.8847C91.6223 13.8847 88.6937 10.8873 86.5232 9.52061C85.4437 11.5533 84.6742 13.7583 84.2952 16.0323C83.6177 20.0288 84.2952 25.7021 85.8916 29.9283C86.1442 30.583 87.0859 30.4796 87.1893 29.7905C88.5674 20.7064 91.6223 13.8847 91.6223 13.8847Z" fill="#038E4C"/>
<path d="M71.1571 43.8244C71.1571 43.8244 35.3373 47.6946 19.1788 78.7943C3.02028 109.894 16.7556 128.751 31.2948 135.619C45.834 142.487 82.4692 144.91 106.299 139.26C130.129 133.609 136.09 121.895 134.976 110.583C133.356 94.0685 118.013 83.9163 118.013 83.9163C118.013 83.9163 118.622 63.5201 102.797 50.2786C88.7512 38.5186 71.1571 43.8244 71.1571 43.8244Z" fill="url(#paint1_linear_128_78)"/>
<path d="M81.7227 56.262C67.172 87.3387 64.6684 126.581 64.6684 126.581" stroke="white" stroke-width="3" stroke-miterlimit="10" stroke-linecap="round"/>
<path d="M85.8571 96.1587C78.1741 86.4658 69.1014 85.1681 66.1959 81.6883C64.611 79.7934 63.6808 77.8755 64.0368 75.4983C64.4158 72.9717 67.3443 71.2261 69.6182 70.8012C72.2711 70.2958 78.599 70.56 83.9162 75.6246C85.1795 76.819 84.7201 78.6794 84.6857 80.3447C84.5938 83.9163 89.7044 87.3846 93.8387 84.3986C97.9846 81.4012 94.8034 74.7288 92.1276 71.4902C90.1063 69.044 82.7793 63.6579 73.6722 62.808C71.1112 62.5669 60.8097 61.0394 54.8608 72.3515C53.1496 75.6016 52.518 83.4569 61.4758 90.0949C63.3477 91.4845 73.0635 96.4228 75.7623 99.6269C80.4365 105.174 77.2323 110.055 73.5803 110.698C63.6234 112.443 57.9845 107.057 56.9395 104.106C56.193 102.004 56.9739 99.7303 56.0092 97.755C55.0216 95.7222 53.0003 94.9183 50.8642 95.5959C43.8587 97.8239 46.0867 105.484 49.1875 109.699C52.5065 114.212 56.5834 116.934 61.1657 118.427C78.2659 123.997 86.4887 115.2 87.9243 108.757C88.9809 104.037 88.866 99.9485 85.8571 96.1587Z" fill="white"/>
<path d="M93.7928 36.7042C103.486 39.8624 105.633 48.625 104.933 51.0137C104.094 53.8159 93.3564 42.9057 77.3931 43.5604C71.8117 43.79 73.431 40.3677 76.015 38.3924C79.4258 35.7854 85.1565 33.902 93.7928 36.7042Z" fill="#212121"/>
<path d="M93.7928 36.7042C103.486 39.8624 105.633 48.625 104.933 51.0137C104.094 53.8159 93.3564 42.9057 77.3931 43.5604C71.8117 43.79 73.431 40.3677 76.015 38.3924C79.4258 35.7854 85.1565 33.902 93.7928 36.7042Z" fill="#212121"/>
<path d="M110.813 67.5971C112.03 66.7587 116.118 68.2058 117.267 76.2104C117.83 80.1265 118.002 83.9164 118.002 83.9164C118.002 83.9164 113.178 79.5868 111.582 76.5434C109.572 72.6962 108.791 68.9752 110.813 67.5971Z" fill="#038E4C"/>
<defs>
<linearGradient id="paint0_linear_128_78" x1="74.237" y1="4.59058" x2="134.204" y2="27.5065" gradientUnits="userSpaceOnUse">
<stop stop-color="#53E88B"/>
<stop offset="1" stop-color="#1DB954"/>
</linearGradient>
<linearGradient id="paint1_linear_128_78" x1="11.8968" y1="42.6306" x2="152.672" y2="96.419" gradientUnits="userSpaceOnUse">
<stop stop-color="#53E88B"/>
<stop offset="1" stop-color="#1DB954"/>
</linearGradient>
</defs>
</svg>
